<?xml version="1.0" encoding="UTF-8"?>
<!-- Generated by Pixelmator Pro 3.7.1 -->
<svg width="1000" height="1000" viewBox="0 0 1000 1000" xmlns="http://www.w3.org/2000/svg">
    <path id="Path" fill="#ffffff" fill-rule="evenodd" stroke="#000000" stroke-width="25" stroke-linecap="round" stroke-linejoin="round" d="M 593.555176 142.555176 C 593.555176 88.677002 549.878235 45 496 45 C 442.121765 45 398.444824 88.677002 398.444824 142.555176 C 398.444824 196.433411 442.121765 456.232605 496 456.232605 C 549.878235 456.232605 593.555176 196.433411 593.555176 142.555176 Z"/>
    <path id="Path-copy" fill="#ffffff" fill-rule="evenodd" stroke="#000000" stroke-width="25" stroke-linecap="round" stroke-linejoin="round" d="M 593.555176 831.444824 C 593.555176 885.322998 549.878235 929 496 929 C 442.121765 929 398.444824 885.322998 398.444824 831.444824 C 398.444824 777.566589 442.121765 517.767395 496 517.767395 C 549.878235 517.767395 593.555176 777.566589 593.555176 831.444824 Z"/>
    <path id="Path-copy-3" fill="#ffffff" fill-rule="evenodd" stroke="#000000" stroke-width="25" stroke-linecap="round" stroke-linejoin="round" d="M 840.444824 584.555176 C 894.322998 584.555176 938 540.878235 938 487 C 938 433.121765 894.322998 389.444824 840.444824 389.444824 C 786.566589 389.444824 526.767395 433.121765 526.767395 487 C 526.767395 540.878235 786.566589 584.555176 840.444824 584.555176 Z"/>
    <path id="Path-copy-2" fill="#ffffff" fill-rule="evenodd" stroke="#000000" stroke-width="25" stroke-linecap="round" stroke-linejoin="round" d="M 151.555176 584.555176 C 97.676971 584.555176 54 540.878235 54 487 C 54 433.121765 97.676971 389.444824 151.555176 389.444824 C 205.433411 389.444824 465.232605 433.121765 465.232605 487 C 465.232605 540.878235 205.433411 584.555176 151.555176 584.555176 Z"/>
    <path id="Path-copy-5" fill="#ffffff" fill-rule="evenodd" stroke="#000000" stroke-width="25" stroke-linecap="round" stroke-linejoin="round" d="M 670.577332 799.541199 C 708.674988 837.638855 770.443542 837.638855 808.541138 799.541199 C 846.638855 761.443542 846.638855 699.674988 808.541138 661.577332 C 770.443542 623.479675 555.853516 470.658142 517.755859 508.755859 C 479.658142 546.853516 632.479675 761.443542 670.577332 799.541199 Z"/>
    <path id="Path-copy-4" fill="#ffffff" fill-rule="evenodd" stroke="#000000" stroke-width="25" stroke-linecap="round" stroke-linejoin="round" d="M 183.458801 312.422668 C 145.361145 274.325012 145.361145 212.556458 183.458801 174.458862 C 221.556458 136.361206 283.325012 136.361206 321.422668 174.458862 C 359.520325 212.556458 512.341858 427.146484 474.244141 465.244141 C 436.146484 503.341858 221.556458 350.520325 183.458801 312.422668 Z"/>
    <path id="Path-copy-7" fill="#ffffff" fill-rule="evenodd" stroke="#000000" stroke-width="25" stroke-linecap="round" stroke-linejoin="round" d="M 808.541138 312.422668 C 846.638855 274.325012 846.638855 212.556458 808.541138 174.458862 C 770.443542 136.361206 708.674988 136.361206 670.577271 174.458862 C 632.479675 212.556458 479.658142 427.146484 517.755798 465.244141 C 555.853455 503.341858 770.443542 350.520325 808.541138 312.422668 Z"/>
    <path id="Path-copy-6" fill="#ffffff" fill-rule="evenodd" stroke="#000000" stroke-width="25" stroke-linecap="round" stroke-linejoin="round" d="M 321.422638 799.541199 C 283.325012 837.638855 221.556427 837.638855 183.458832 799.541199 C 145.361145 761.443542 145.361145 699.674988 183.458832 661.577332 C 221.556427 623.479675 436.146484 470.658142 474.24408 508.755859 C 512.341797 546.853516 359.520264 761.443542 321.422638 799.541199 Z"/>
    <path id="Oval" fill="#ffffff" fill-rule="evenodd" stroke="#000000" stroke-width="25" stroke-linecap="round" stroke-linejoin="round" d="M 659 500 C 659 412.186707 587.813293 341 500 341 C 412.186707 341 341 412.186707 341 500 C 341 587.813293 412.186707 659 500 659 C 587.813293 659 659 587.813293 659 500 Z"/>
    <path id="Line" fill="#ffffff" fill-rule="evenodd" stroke="#000000" stroke-width="25" stroke-linecap="round" stroke-linejoin="round" d="M 460.013855 555.955078 C 460.013855 555.955078 461.896973 590.012146 500.132568 589.999817 C 539.024902 589.987244 539.013855 555.929565 539.013855 555.929565 M 440.020203 496.461548 L 440 467.018127 M 558.963623 496.44342 L 558.94342 467"/>
</svg>
